<?xml version="1.0" encoding="iso-8859-1"?>
<!-- Generator: Adobe Illustrator 18.0.0, SVG Export Plug-In . SVG Version: 6.00 Build 0)  -->
<!DOCTYPE svg PUBLIC "-//W3C//DTD SVG 1.1//EN" "http://www.w3.org/Graphics/SVG/1.1/DTD/svg11.dtd">
<svg xmlns="http://www.w3.org/2000/svg" xmlns:xlink="http://www.w3.org/1999/xlink" version="1.1" id="Capa_1" x="0px" y="0px" viewBox="0 0 297 297" style="enable-background:new 0 0 297 297;" xml:space="preserve" width="512px" height="512px">
<g>
	<path d="M207.658,125.21V10.102C207.658,4.523,203.135,0,197.557,0H18.695C13.116,0,8.593,4.523,8.593,10.102v268.292   c0,5.579,4.523,10.102,10.102,10.102h146.461c11.281,5.448,23.925,8.504,37.269,8.504c47.41,0,85.982-38.571,85.982-85.983   C288.407,165.366,252.639,127.926,207.658,125.21z M28.796,20.203h158.659v106.164c-40.296,7.108-71.013,42.348-71.013,84.65   c0,21.983,8.302,42.057,21.923,57.275H28.796V20.203z M202.425,276.797c-36.271,0-65.78-29.509-65.78-65.78   c0-36.27,29.509-65.779,65.78-65.779c36.27,0,65.779,29.509,65.779,65.779C268.204,247.288,238.695,276.797,202.425,276.797z" fill="#FFFFFF"/>
	<path d="M231.926,181.517c-3.946-3.944-10.34-3.944-14.286,0l-44.715,44.716c-3.945,3.945-3.945,10.341,0,14.286   c1.973,1.972,4.558,2.958,7.143,2.958s5.17-0.986,7.143-2.958l44.715-44.716C235.871,191.858,235.871,185.461,231.926,181.517z" fill="#FFFFFF"/>
	<path d="M179.927,198.627c2.667,0,5.263-1.081,7.152-2.959c1.879-1.879,2.95-4.486,2.95-7.142c0-2.657-1.07-5.263-2.95-7.142   c-1.889-1.878-4.495-2.959-7.152-2.959c-2.657,0-5.263,1.081-7.141,2.959c-1.879,1.879-2.96,4.486-2.96,7.142   c0,2.657,1.081,5.263,2.96,7.142C174.664,197.546,177.271,198.627,179.927,198.627z" fill="#FFFFFF"/>
	<path d="M224.92,223.407c-2.657,0-5.263,1.08-7.141,2.959c-1.889,1.879-2.96,4.485-2.96,7.142c0,2.666,1.071,5.263,2.96,7.141   c1.878,1.879,4.485,2.96,7.141,2.96c2.657,0,5.263-1.081,7.142-2.96c1.879-1.878,2.959-4.475,2.959-7.141   c0-2.658-1.08-5.263-2.959-7.142C230.183,224.487,227.576,223.407,224.92,223.407z" fill="#FFFFFF"/>
	<path d="M72.353,73.862h71.545c5.579,0,10.102-4.523,10.102-10.102c0-5.579-4.523-10.102-10.102-10.102H72.353   c-5.579,0-10.102,4.523-10.102,10.102C62.252,69.339,66.775,73.862,72.353,73.862z" fill="#FFFFFF"/>
	<path d="M72.353,127.521h71.545c5.579,0,10.102-4.523,10.102-10.102c0-5.579-4.523-10.102-10.102-10.102H72.353   c-5.579,0-10.102,4.523-10.102,10.102C62.252,122.997,66.775,127.521,72.353,127.521z" fill="#FFFFFF"/>
	<path d="M90.239,160.975H72.353c-5.579,0-10.102,4.523-10.102,10.102s4.523,10.102,10.102,10.102h17.886   c5.579,0,10.102-4.523,10.102-10.102S95.818,160.975,90.239,160.975z" fill="#FFFFFF"/>
</g>
<g>
</g>
<g>
</g>
<g>
</g>
<g>
</g>
<g>
</g>
<g>
</g>
<g>
</g>
<g>
</g>
<g>
</g>
<g>
</g>
<g>
</g>
<g>
</g>
<g>
</g>
<g>
</g>
<g>
</g>
</svg>
